<svg xmlns="http://www.w3.org/2000/svg" xmlns:xlink="http://www.w3.org/1999/xlink" width="239.458" height="211.145" viewBox="0 0 239.458 211.145">
  <defs>
    <clipPath id="clip-path">
      <rect id="Rectangle_548" data-name="Rectangle 548" width="142.714" height="198.58" fill="none" stroke="#e3e3e3" stroke-width="1"/>
    </clipPath>
  </defs>
  <g id="Group_939" data-name="Group 939" transform="translate(239.458 80.77) rotate(114)">
    <g id="Group_724" data-name="Group 724" clip-path="url(#clip-path)">
      <path id="Path_29222" data-name="Path 29222" d="M276.02,203.58s-6.072-11.282-6.624-16.128-8.831-13.736-8.831-26.954,1.932-54.339,3.864-61.239,21.8-41.4,23.734-50.229,12.143-24.286,24.286-16.283,16.559,13.247,28.978,16.283" transform="translate(-199.833 -23.405)" fill="none" stroke="#e3e3e3" stroke-linecap="round" stroke-linejoin="round" stroke-width="1"/>
      <path id="Path_29223" data-name="Path 29223" d="M133.615,664.756s-13.047-3.938-21.6-5.681S90.988,650.789,87.45,660.4c-2.779,7.551,0,19.009-2.208,23.977s.828,8.832-1.1,16.283" transform="translate(-64.527 -502.549)" fill="none" stroke="#e3e3e3" stroke-linecap="round" stroke-linejoin="round" stroke-width="1"/>
      <path id="Path_29224" data-name="Path 29224" d="M108.43,645.577s-9.9-4.609-13.53-6.105c-9.383-3.871-16.835-6.079-21.25,1.687-3.105,5.461.6,21.434-1.331,24.182s3.539,15.8,2.435,20.5a77.536,77.536,0,0,0,4.416-7.727c6.9-13.308,2.284-32.371,11-32.532C105.068,645.3,108.43,645.577,108.43,645.577Z" transform="translate(-55.143 -487.723)" fill="none" stroke="#e3e3e3" stroke-linecap="round" stroke-linejoin="round" stroke-width="1"/>
      <path id="Path_29225" data-name="Path 29225" d="M316.955,58.016c1.9-11.061,2.461-14.708,4.366-25.77.914-5.306,2.613-13,5.949-17.23,2.988-3.784,7.838-9.823,12.4-11.377,5.685-1.936,12.533-2.762,17.221.992,2.443,1.956,6.805,7.074,11.5,9.282,6.093,2.867,11.326,9.636,16.936,13.362,0,0-12.565,1.134-21.076-3.7-13.11-7.452-13.836,1.98-20.009,5.244C332.238,35.163,316.955,58.016,316.955,58.016Z" transform="translate(-243.08 -1.534)" fill="none" stroke="#e3e3e3" stroke-linecap="round" stroke-linejoin="round" stroke-width="1"/>
      <path id="Path_29226" data-name="Path 29226" d="M300.283,249.576c.376-.593-.7-8.2,1.782-11.235s5.8-5.563,7.176-12.027,6.9-15.019,18.766-13.087a62.046,62.046,0,0,0,21.527-.278,74.41,74.41,0,0,1-20.423,6.848c-5.685,1.032-12.143,18.556-16.835,22.552S300.283,249.576,300.283,249.576Z" transform="translate(-230.294 -163.315)" fill="none" stroke="#e3e3e3" stroke-linecap="round" stroke-linejoin="round" stroke-width="1"/>
      <path id="Path_29227" data-name="Path 29227" d="M324.764,212.949s-15.734,3.6-24.625,3.109c-8.322-.455-6.088,8.24-15.5,17.776a19.027,19.027,0,0,0-3.621,5.135l-1.62,3.379a57.033,57.033,0,0,1-11.414,16.658" transform="translate(-205.524 -163.315)" fill="none" stroke="#e3e3e3" stroke-linecap="round" stroke-linejoin="round" stroke-width="1"/>
      <path id="Path_29228" data-name="Path 29228" d="M177.47,140.939s-4.89-6.639-5.994-14.367S147.1,89.038,149.63,66.132" transform="translate(-114.608 -50.718)" fill="none" stroke="#e3e3e3" stroke-linecap="round" stroke-linejoin="round" stroke-width="1"/>
      <path id="Path_29229" data-name="Path 29229" d="M170.217,132.567s-.2-9.288-.2-14.108c0-9.95-4.949-13.509-8.279-23.35C156.113,78.5,148.97,78.5,146.787,66.131c0,0-3.22,18.005,1.585,31.495s13.034,19.682,13.862,25.754S170.217,132.567,170.217,132.567Z" transform="translate(-111.764 -50.717)" fill="none" stroke="#e3e3e3" stroke-linecap="round" stroke-linejoin="round" stroke-width="1"/>
      <path id="Path_29230" data-name="Path 29230" d="M62.266,397.789s-5.491-3.907-11.885-15.426C32.133,349.49,23.628,333.181,2,342.547" transform="translate(-1.534 -260.697)" fill="none" stroke="#e3e3e3" stroke-linecap="round" stroke-linejoin="round" stroke-width="1"/>
      <path id="Path_29231" data-name="Path 29231" d="M2,331.069s10.313-7.928,16.292-5.72c2.393.884,14.177,7.015,17.208,10.131s1.375,8.36,5.239,11.672,11.874,8.191,16.007,33.42c0,0-12.7-10.789-15.731-16.861S28.41,332.525,2,331.069Z" transform="translate(-1.534 -249.22)" fill="none" stroke="#e3e3e3" stroke-linecap="round" stroke-linejoin="round" stroke-width="1"/>
      <path id="Path_29232" data-name="Path 29232" d="M260.565,446.287s10.763-6.624,21.25-28.15c7.786-15.981,15.455-9.55,20.423-2.767,3.33,4.547,8.555,22.085,12.143,25.673" transform="translate(-199.833 -313.029)" fill="none" stroke="#e3e3e3" stroke-linecap="round" stroke-linejoin="round" stroke-width="1"/>
      <path id="Path_29233" data-name="Path 29233" d="M288.657,424.132a137.282,137.282,0,0,0,6.6-16.232c2.311-7.451,9.009-20.391,16.975-20.959s17.349,4.435,18.454,17.94,5.244,19.853,5.244,19.853-18.943-24.58-23.634-21.251C306.2,407.805,301.152,418.663,288.657,424.132Z" transform="translate(-221.377 -296.721)" fill="none" stroke="#e3e3e3" stroke-linecap="round" stroke-linejoin="round" stroke-width="1"/>
      <path id="Path_29234" data-name="Path 29234" d="M291.2,496.237s9.694-10.229,13.834-20.164,21.527-26.406,35.05-36.988" transform="translate(-223.329 -336.744)" fill="none" stroke="#e3e3e3" stroke-linecap="round" stroke-linejoin="round" stroke-width="1"/>
      <path id="Path_29235" data-name="Path 29235" d="M316.938,480.9s7.555-3.314,11.971-8.834,2.725-7.717,6.468-12.552S362.3,428.458,362.3,428.458s-13.439,6.88-21.932,14.332-15.459,12.02-19.6,20.576A41.772,41.772,0,0,0,316.938,480.9Z" transform="translate(-243.063 -328.594)" fill="none" stroke="#e3e3e3" stroke-linecap="round" stroke-linejoin="round" stroke-width="1"/>
    </g>
  </g>
</svg>
