<svg xmlns="http://www.w3.org/2000/svg" xmlns:xlink="http://www.w3.org/1999/xlink" width="728.495" height="637.919" viewBox="0 0 728.495 637.919">
  <defs>
    <clipPath id="clip-path">
      <rect id="Rectangle_191" data-name="Rectangle 191" width="306.139" height="674.967" transform="translate(0 0)" fill="none" stroke="#e3e3e3" stroke-width="2"/>
    </clipPath>
  </defs>
  <g id="Group_1236" data-name="Group 1236" transform="translate(175.594 637.919) rotate(-125)">
    <g id="Group_191" data-name="Group 191" transform="translate(0 0)" clip-path="url(#clip-path)">
      <path id="Path_70" data-name="Path 70" d="M0,0S36.735,30.935,52.847,127.606,97.316,305.481,103.76,383.462s45.114,143.481,50.914,198.057S169.5,640.487,169.5,640.487" transform="translate(67.771 1.069)" fill="none" stroke="#e3e3e3" stroke-linecap="round" stroke-linejoin="round" stroke-width="2"/>
      <path id="Path_71" data-name="Path 71" d="M70.8,0S58,47.148,0,38.77" transform="translate(48.438 120.839)" fill="none" stroke="#e3e3e3" stroke-linecap="round" stroke-linejoin="round" stroke-width="2"/>
      <path id="Path_72" data-name="Path 72" d="M0,0S12.9,38.955,50.147,50.291" transform="translate(123.318 144.12)" fill="none" stroke="#e3e3e3" stroke-linecap="round" stroke-linejoin="round" stroke-width="2"/>
      <path id="Path_73" data-name="Path 73" d="M11.723,0S17.4,46.424,0,68.336" transform="translate(111.596 144.119)" fill="none" stroke="#e3e3e3" stroke-linecap="round" stroke-linejoin="round" stroke-width="2"/>
      <path id="Path_74" data-name="Path 74" d="M0,4.831S48.247,47.691,95.938,0" transform="translate(141.33 223.412)" fill="none" stroke="#e3e3e3" stroke-linecap="round" stroke-linejoin="round" stroke-width="2"/>
      <path id="Path_75" data-name="Path 75" d="M73.613,0S77.981,90.9,0,159.86" transform="translate(58.105 186.002)" fill="none" stroke="#e3e3e3" stroke-linecap="round" stroke-linejoin="round" stroke-width="2"/>
      <path id="Path_76" data-name="Path 76" d="M110.527,32.193s-21.268,54.455-69.6,49.913C-4.811,77.807-.782,54.038,3.7,44.508a10.777,10.777,0,0,0,.148-8.888C-.293,26.137-6.472,4.935,18.367.464,50.591-5.336,64.77,45.407,110.527,32.193Z" transform="translate(1.068 103.896)" fill="none" stroke="#e3e3e3" stroke-linecap="round" stroke-linejoin="round" stroke-width="2"/>
      <path id="Path_77" data-name="Path 77" d="M29.307,0S19.277,28.233,5.743,43.7,4.91,86.944,19.922,76.568,36.867,25.32,29.307,0Z" transform="translate(94.897 146.844)" fill="none" stroke="#e3e3e3" stroke-linecap="round" stroke-linejoin="round" stroke-width="2"/>
      <path id="Path_78" data-name="Path 78" d="M0,0S4.148,5.677,28.316,10.188s56.392,28.97,31.257,47.691C30.366,79.633,4.31,32.639,0,0Z" transform="translate(124.204 146.844)" fill="none" stroke="#e3e3e3" stroke-linecap="round" stroke-linejoin="round" stroke-width="2"/>
      <path id="Path_79" data-name="Path 79" d="M0,53.274s28.679,29.384,80.881,15.85S125.994,4.032,95.06.165,51.236,61.914,0,53.274Z" transform="translate(152.52 182.645)" fill="none" stroke="#e3e3e3" stroke-linecap="round" stroke-linejoin="round" stroke-width="2"/>
      <path id="Path_80" data-name="Path 80" d="M96.813,0s-2.282,34.094,3.247,60.347C107.464,95.5,80,136.4,30.914,146.062c-27.453,5.406-34.96-20.2-29-66.381C9.646,19.745,67,44.864,96.813,0Z" transform="translate(31.702 221.068)" fill="none" stroke="#e3e3e3" stroke-linecap="round" stroke-linejoin="round" stroke-width="2"/>
      <path id="Path_81" data-name="Path 81" d="M92.2,0a325.645,325.645,0,0,0-8.371,59.14c-1.35,31.579-19.032,43.18-30.492,45.113-8.532,1.439-37.5,8.237-51.75,11.617a1.285,1.285,0,0,1-.977-2.34c13.761-8.571,43.707-28.68,54.066-47.3C68.3,41.739,78.425,23.444,89.192,14.077" transform="translate(64.561 294.455)" fill="none" stroke="#e3e3e3" stroke-linecap="round" stroke-linejoin="round" stroke-width="2"/>
      <path id="Path_82" data-name="Path 82" d="M0,8.881S26.351,24.41,38.5,41.167,62.884,62.434,82.863,56.634s26.376-10.956,34.455-29.646a195.181,195.181,0,0,0,9.29-25.443A1.221,1.221,0,0,0,124.783.191c-5.3,3.315-17.578,11.4-24.519,19.216-9.023,10.16-58.271,7.377-73.149,9.43" transform="translate(154.405 275.049)" fill="none" stroke="#e3e3e3" stroke-linecap="round" stroke-linejoin="round" stroke-width="2"/>
      <path id="Path_83" data-name="Path 83" d="M0,0S11.866,27.126,25.322,46.661c10.21,14.823,63.436,28.012,87.927,15.6" transform="translate(163.977 329.836)" fill="none" stroke="#e3e3e3" stroke-linecap="round" stroke-linejoin="round" stroke-width="2"/>
      <path id="Path_84" data-name="Path 84" d="M0,15.185S8,38.316,9.188,51.206,41.31,84.074,70.956,77.629c27.189-5.911,35.4-36.757,49.506-50.778a3.042,3.042,0,0,0-1.187-5.04A365.467,365.467,0,0,1,78.69,5.448C41.311-12.6,19.914,20.41,0,15.185Z" transform="translate(183.713 352.659)" fill="none" stroke="#e3e3e3" stroke-linecap="round" stroke-linejoin="round" stroke-width="2"/>
      <path id="Path_85" data-name="Path 85" d="M60.666,0S56.069,71.059,0,101.349" transform="translate(111.596 392.098)" fill="none" stroke="#e3e3e3" stroke-linecap="round" stroke-linejoin="round" stroke-width="2"/>
      <path id="Path_86" data-name="Path 86" d="M79.778,0S55.842,6.389,33.808,10.256-4.237,54.41,1,75.267C3.519,85.308,8.4,88.094,12.1,88.646a20.926,20.926,0,0,1,9.443,3.823c5.807,4.311,16.69,9.295,30.278,1.085C72.355,81.148,93,65.792,79.778,0Z" transform="translate(89.51 410.365)" fill="none" stroke="#e3e3e3" stroke-linecap="round" stroke-linejoin="round" stroke-width="2"/>
      <path id="Path_87" data-name="Path 87" d="M46.7,0S34.411,27.84,34.411,43.249,2.273,74.771.3,71.549,6.7,63.815,10.888,57.37s12.46-29,27.265-34.083" transform="translate(141.632 465.077)" fill="none" stroke="#e3e3e3" stroke-linecap="round" stroke-linejoin="round" stroke-width="2"/>
      <path id="Path_88" data-name="Path 88" d="M0,0S10.739,26.3,51.986,24.366" transform="translate(185.282 454.903)" fill="none" stroke="#e3e3e3" stroke-linecap="round" stroke-linejoin="round" stroke-width="2"/>
      <path id="Path_89" data-name="Path 89" d="M0,1.713S18.123,29.438,27.7,30.082,77.236,21.692,75.947,15.9,50.168,5.568,33.411,1.713,4.572,1.713,0,1.713Z" transform="translate(192.901 463.364)" fill="none" stroke="#e3e3e3" stroke-linecap="round" stroke-linejoin="round" stroke-width="2"/>
      <path id="Path_90" data-name="Path 90" d="M0,0S40.107,53.012,85.253,54.945" transform="translate(195.807 488.126)" fill="none" stroke="#e3e3e3" stroke-linecap="round" stroke-linejoin="round" stroke-width="2"/>
      <path id="Path_91" data-name="Path 91" d="M12.983,0s-3.256,25.077-9.8,25.077S.33,11.014,12.983,0Z" transform="translate(189.719 508.327)" fill="none" stroke="#e3e3e3" stroke-linecap="round" stroke-linejoin="round" stroke-width="2"/>
      <path id="Path_92" data-name="Path 92" d="M39.475,0s-4.429,20.924-3,33.169S22.075,53.792,15.488,57.66c-5.051,2.965-11.917,2.9-14.845,2.706A.691.691,0,0,1,.181,59.21c2.995-3.321,12.206-14.234,15.307-26.041C19.213,18.991,37.044,15.1,37.044,15.1" transform="translate(174.231 542.125)" fill="none" stroke="#e3e3e3" stroke-linecap="round" stroke-linejoin="round" stroke-width="2"/>
      <path id="Path_93" data-name="Path 93" d="M0,0S8.511,10.889,16.89,21.857C24.836,32.26,35.1,34.326,51.539,33.785a1.129,1.129,0,0,0,.754-1.946c-3.311-3.1-10.075-9.572-14.78-14.907C31.068,9.624,17.333,8.562,0,0Z" transform="translate(220.379 568.893)" fill="none" stroke="#e3e3e3" stroke-linecap="round" stroke-linejoin="round" stroke-width="2"/>
      <path id="Path_94" data-name="Path 94" d="M.01,0s-.643,22.609,8.5,31.984A152.043,152.043,0,0,0,26.682,47.8S20.238,15.579,13.149,11.068A76.7,76.7,0,0,1,.01,0Z" transform="translate(229.92 626.096)" fill="none" stroke="#e3e3e3" stroke-linecap="round" stroke-linejoin="round" stroke-width="2"/>
      <path id="Path_95" data-name="Path 95" d="M7.977,0s3.029,21.539-5.285,27.34S7.977,0,7.977,0Z" transform="translate(222.912 639.47)" fill="none" stroke="#e3e3e3" stroke-linecap="round" stroke-linejoin="round" stroke-width="2"/>
      <path id="Path_96" data-name="Path 96" d="M20.633,0S21.6,18.045,1.418,29c0,0-3.99-4.992,1.417-12.246A69.027,69.027,0,0,1,20.633,0Z" transform="translate(209.287 635.875)" fill="none" stroke="#e3e3e3" stroke-linecap="round" stroke-linejoin="round" stroke-width="2"/>
      <path id="Path_97" data-name="Path 97" d="M0,5.662S8.061,19.4,12.187,30.582,37.892,65.6,59.493,53.394c9.578-5.41,11.64-10.318,11.737-13.41A12.009,12.009,0,0,1,73.8,32.925C79.2,26.083,87.012,11.262,63.327,1.868,49.189-3.74,28.8,5,0,5.662Z" transform="translate(217.733 506.458)" fill="none" stroke="#e3e3e3" stroke-linecap="round" stroke-linejoin="round" stroke-width="2"/>
    </g>
  </g>
</svg>
